<svg width="120" height="93" viewBox="0 0 170 93" fill="none" xmlns="http://www.w3.org/2000/svg">
<g clip-path="url(#clip0_403_227)">
<path d="M163.072 92.988C164.904 92.9742 166.657 92.3485 167.953 91.2458C169.249 90.143 169.984 88.6514 170 87.0919V5.90812C169.876 2.82404 166.829 0.231296 163.072 0.012085H6.9279C3.17085 0.231296 0.133229 2.82404 0 5.90812V87.0919C0.133229 90.4103 3.17085 92.9955 6.9279 92.988H163.072V92.988Z" fill="#8D2626" fill-opacity="0.93"/>
<path d="M163.072 91.1813C165.675 91.4005 167.984 89.4352 167.869 87.0994V6.36159C167.984 3.72349 165.675 1.75815 163.072 1.82618H6.9281C4.22799 1.75815 1.91869 3.72349 2.13186 6.36159V87.0919C2.0795 87.6392 2.16764 88.1897 2.39016 88.7051C2.61268 89.2206 2.96425 89.6887 3.42052 90.077C3.87678 90.4653 4.42681 90.7645 5.03248 90.9539C5.63816 91.1433 6.28497 91.2183 6.9281 91.1737H163.072V91.1813Z" fill="#220505"/>
<path d="M28.7774 44.9126L5.3291 24.9568L28.7774 5.00098H150.282C158.969 4.83468 162.85 9.55906 163.072 13.1647V44.9126H28.7774ZM28.7774 48.0874L5.3291 68.0432L28.7774 88.0065H150.282C158.969 88.2182 162.85 83.4938 163.072 79.8428V48.0949H28.7774V48.0874Z" fill="#8D2626" fill-opacity="0.93"/>
<path d="M140.69 18.6073L142.297 23.5962L149.758 24.5033L142.297 25.4104L140.69 30.3993L139.624 25.4104L132.163 24.5033L139.624 23.5962L140.69 18.6073V17.2466C135.041 17.2315 130.262 20.5575 130.031 24.5033C130.262 28.7515 135.041 32.0699 140.69 32.221C146.836 32.0699 151.614 28.7515 151.348 24.5033C151.614 20.5575 146.836 17.2315 140.69 17.2466V18.6073V18.6073ZM53.8244 18.1537H57.0219L53.8244 31.7599H50.6269L53.8244 18.1537ZM72.4765 18.1537H75.6828L71.9436 31.7599H69.279L72.4765 18.1537ZM58.6207 18.1537L58.0877 20.4214H62.3599L59.6865 31.7599H62.884L65.5486 20.4214H70.3448L70.8777 18.1537H58.6207ZM103.918 31.7599L107.116 18.1537H110.313L114.577 27.6781L117.241 18.1537H120.439L116.708 31.7599H113.511L109.248 22.2356L107.116 31.7599H103.918ZM126.834 18.1537H130.564L123.636 24.5033L127.9 31.7599H124.702L119.906 24.5033L126.834 18.1537ZM99.6551 29.0387H93.7931L91.6614 31.7599H88.4639L97.5235 18.1537H100.721L103.386 31.7599H100.188L99.6551 29.0387ZM74.6081 31.7599L77.8056 18.1537H85.7993C88.7215 18.2369 89.8673 19.9376 90.0627 21.3285C89.8317 22.0315 89.6097 23.7398 86.8652 24.5033C87.9754 24.8812 89.4587 25.6674 88.9968 28.1316C88.5965 29.1865 87.8133 30.106 86.7599 30.758C85.7065 31.41 84.4373 31.7608 83.1348 31.7599H74.6081ZM48.4953 22.6891C48.2199 20.5802 46.0972 19.983 44.7649 19.9754C43.3526 19.983 40.2617 20.5197 38.9028 24.9568C38.0324 29.2428 41.5318 30.0062 42.6332 29.9458C43.4681 30.0062 46.4347 29.6888 47.4294 27.2321H50.6269C49.9253 29.4393 47.4028 32.2815 41.5674 32.221C36.256 32.0245 35.1369 27.7234 36.2382 24.9568C36.9221 21.782 38.3699 17.8211 45.8307 17.7002C51.302 17.8211 51.7905 22.16 51.6928 22.6891H48.4953V22.6891Z" fill="#220505"/>
<path d="M98.5892 21.3285L94.8588 26.771H99.655L98.5892 21.3285ZM79.9371 23.5962H83.6675C84.9377 23.5508 86.3943 23.0141 86.3321 22.2356C86.643 21.3663 86.2699 20.5726 84.7334 20.4214H80.47L79.9371 23.5962ZM78.3384 29.4922H82.0688C84.0406 29.4393 85.3018 28.4869 85.2663 27.678C85.7459 26.7785 85.1952 25.8261 83.6675 25.8639H79.4042L78.3384 29.4922Z" fill="#8D2626" fill-opacity="0.93"/>
</g>
<defs>
<clipPath id="clip0_403_227">
<rect width="150" height="93" fill="white"/>
</clipPath>
</defs>
</svg>
